<svg width="24" height="26" viewBox="0 0 24 26" fill="none" xmlns="http://www.w3.org/2000/svg">
<path d="M17.3333 23.4H6.66667C5.6058 23.4 4.58839 22.9891 3.83824 22.2577C3.08809 21.5263 2.66667 20.5343 2.66667 19.5V6.5C2.66667 6.15522 2.52619 5.82456 2.27614 5.58076C2.02609 5.33696 1.68696 5.2 1.33333 5.2C0.979711 5.2 0.640573 5.33696 0.390524 5.58076C0.140476 5.82456 0 6.15522 0 6.5V19.5C0 21.2239 0.702379 22.8772 1.95262 24.0962C3.20286 25.3152 4.89856 26 6.66667 26H17.3333C17.687 26 18.0261 25.863 18.2761 25.6192C18.5262 25.3754 18.6667 25.0448 18.6667 24.7C18.6667 24.3552 18.5262 24.0246 18.2761 23.7808C18.0261 23.537 17.687 23.4 17.3333 23.4ZM9.33333 14.3C9.33333 14.6448 9.47381 14.9754 9.72386 15.2192C9.97391 15.463 10.313 15.6 10.6667 15.6H17.3333C17.687 15.6 18.0261 15.463 18.2761 15.2192C18.5262 14.9754 18.6667 14.6448 18.6667 14.3C18.6667 13.9552 18.5262 13.6246 18.2761 13.3808C18.0261 13.137 17.687 13 17.3333 13H10.6667C10.313 13 9.97391 13.137 9.72386 13.3808C9.47381 13.6246 9.33333 13.9552 9.33333 14.3ZM24 9.022C23.9861 8.90257 23.9593 8.78492 23.92 8.671V8.554C23.8559 8.42033 23.7704 8.29746 23.6667 8.19L15.6667 0.39C15.5564 0.288881 15.4304 0.205505 15.2933 0.143C15.2535 0.137488 15.2131 0.137488 15.1733 0.143C15.0379 0.0672636 14.8883 0.0186475 14.7333 0H9.33333C8.27247 0 7.25505 0.410892 6.50491 1.14228C5.75476 1.87368 5.33333 2.86566 5.33333 3.9V16.9C5.33333 17.9343 5.75476 18.9263 6.50491 19.6577C7.25505 20.3891 8.27247 20.8 9.33333 20.8H20C21.0609 20.8 22.0783 20.3891 22.8284 19.6577C23.5786 18.9263 24 17.9343 24 16.9V9.1C24 9.1 24 9.1 24 9.022ZM16 4.433L19.4533 7.8H17.3333C16.9797 7.8 16.6406 7.66304 16.3905 7.41924C16.1405 7.17544 16 6.84478 16 6.5V4.433ZM21.3333 16.9C21.3333 17.2448 21.1929 17.5754 20.9428 17.8192C20.6928 18.063 20.3536 18.2 20 18.2H9.33333C8.97971 18.2 8.64057 18.063 8.39052 17.8192C8.14048 17.5754 8 17.2448 8 16.9V3.9C8 3.55522 8.14048 3.22456 8.39052 2.98076C8.64057 2.73696 8.97971 2.6 9.33333 2.6H13.3333V6.5C13.3369 6.94349 13.4181 7.38312 13.5733 7.8H10.6667C10.313 7.8 9.97391 7.93696 9.72386 8.18076C9.47381 8.42456 9.33333 8.75522 9.33333 9.1C9.33333 9.44478 9.47381 9.77544 9.72386 10.0192C9.97391 10.263 10.313 10.4 10.6667 10.4H21.3333V16.9Z" fill="#F6A32F"/>
</svg>
